<?xml version="1.0" encoding="utf-8"?>
<!-- Generator: Adobe Illustrator 24.0.1, SVG Export Plug-In . SVG Version: 6.00 Build 0)  -->
<svg version="1.1" id="layer1" xmlns="http://www.w3.org/2000/svg" xmlns:xlink="http://www.w3.org/1999/xlink" x="0px" y="0px"
	 viewBox="0 0 1050 440" style="enable-background:new 0 0 1050 440;" xml:space="preserve">
<style type="text/css">
	.st0{fill:#FFFFFF;}
	.st1{fill:#FFFFFF;stroke:#000000;stroke-miterlimit:10;}
	.st2{fill-rule:evenodd;clip-rule:evenodd;fill:#D43232;}
	.st3{fill-rule:evenodd;clip-rule:evenodd;fill:#DB3816;}
	.st4{fill-rule:evenodd;clip-rule:evenodd;fill:#5E5958;}
	.st5{fill:none;stroke:#8B8A8A;stroke-width:2;stroke-miterlimit:10;}
</style>
<g>
	<g>
		<rect x="-71.6" y="-227" class="st0" width="41" height="4"/>
		<path d="M-31.1-226.5v3h-40v-3H-31.1 M-30.1-227.5h-42v5h42L-30.1-227.5L-30.1-227.5z"/>
	</g>
</g>
<path class="st1" d="M631.8,62.5"/>
<path class="st1" d="M420,354"/>
<path class="st2" d="M-39.1,182.5"/>
<path class="st3" d="M514.9,706.5"/>
<path class="st4" d="M1025.9,440H24.1c0-12.1-10.9-22-24.1-22V22c13.3,0,24.1-9.9,24.1-22h1001.7c0,12.1,10.9,22,24.1,22v396
	C1036.7,418,1025.9,427.9,1025.9,440z"/>
<path class="st5" d="M999.2,426.5H53.4c0-13.8-12-25.1-27.1-25.1V51.6c14.9,0,27.1-11.1,27.1-25.1h945.9c0,13.8,12,25.1,27.1,25.1
	v350C1011.3,401.6,999.2,412.7,999.2,426.5z"/>
</svg>
